# xmcd
#
# Track frame offsets: 
#        150
#        18901
#        38904
#        63354
#        87455
#        102544
#        126970
#        142648
#        163560
#        190383
#
# Disc length: 2892 seconds
#
# Revision: 0
# Processed by: cddbd v1.5.2PL0 Copyright (c) Steve Scherf et al.
# Submitted via: ExactAudioCopyFreeDBPlugin 1.0
#
DISCID=820b4a0a
DTITLE=UNS - Alles was wir machen ist Kunst
DYEAR=2018
DGENRE=No, thanks.
TTITLE0=Internetgold
TTITLE1=Körper
TTITLE2=Esse um zu vernichten
TTITLE3=Alles was ich mache ist Kunst
TTITLE4=Von A nach A
TTITLE5=Das Haus
TTITLE6=Die allerschnellsten Autos der Welt
TTITLE7=Nackt sehen
TTITLE8=Der Riss
TTITLE9=München
EXTD=
EXTT0=
EXTT1=
EXTT2=
EXTT3=
EXTT4=
EXTT5=
EXTT6=
EXTT7=
EXTT8=
EXTT9=
PLAYORDER=
